<svg width="24" height="24" viewBox="0 0 24 24" fill="none" xmlns="http://www.w3.org/2000/svg">
  <path d="M0.408 15.162C1.128 14.898 1.872 14.766 2.664 14.766C4.272 14.766 5.676 15.27 6.876 16.278L3.108 20.046C1.836 18.606 0.936 16.962 0.408 15.162ZM16.272 9.36596C18.636 11.13 21.192 11.562 23.928 10.662C23.964 10.914 24 11.37 24 12.006C24 13.242 23.7 14.622 23.136 16.146C22.572 17.658 21.876 18.882 21.06 19.806L13.464 12.234L16.272 9.36596ZM8.124 17.574C9.396 19.41 9.66 21.414 8.904 23.598C7.2 23.106 5.676 22.338 4.404 21.282L8.124 17.574ZM12.228 13.47L19.8 21.066C17.196 23.346 14.136 24.306 10.656 23.934C10.908 23.142 11.04 22.278 11.04 21.342C11.04 20.598 10.872 19.722 10.536 18.726C10.2 17.73 9.804 16.914 9.36 16.278L12.228 13.47ZM8.172 15.006C7.056 14.01 5.76 13.386 4.296 13.098C2.832 12.822 1.428 12.906 0.072 13.362C0.036 13.098 0 12.642 0 12.006C0 10.77 0.3 9.38996 0.864 7.86596C1.428 6.35396 2.124 5.12996 2.94 4.20596L10.932 12.234L8.172 15.006ZM16.272 6.88196C14.664 4.90196 14.292 2.74196 15.156 0.413962C15.9 0.605962 16.752 0.965962 17.712 1.51796C18.66 2.05796 19.44 2.59796 20.04 3.11396L16.272 6.88196ZM23.592 8.86196C22.872 9.11396 22.128 9.24596 21.336 9.24596C20.028 9.24596 18.768 8.86196 17.568 8.06996L21.276 4.40996C22.332 5.72996 23.1 7.20596 23.592 8.86196ZM12.228 10.938L4.2 2.94596C6.804 0.665962 9.864 -0.294038 13.356 0.0779619C13.092 0.869962 12.96 1.73396 12.96 2.66996C12.96 3.53396 13.152 4.50596 13.548 5.59796C13.944 6.67796 14.4 7.54196 15 8.17796L12.228 10.938Z" fill="#345A5D"/>
</svg>
